<svg id="レイヤー_1" data-name="レイヤー 1" xmlns="http://www.w3.org/2000/svg" viewBox="0 0 283.46 283.46"><defs><style>.cls-1,.cls-2{fill:#fff;}.cls-2,.cls-4{stroke:#000;stroke-miterlimit:10;}.cls-3{fill:#d2d6da;}.cls-4{fill:none;}</style></defs><circle class="cls-1" cx="141.95" cy="140.92" r="135.54"/><ellipse class="cls-1" cx="157.93" cy="115.44" rx="1.14" ry="1.89"/><path class="cls-2" d="M44.8,217.8c0-35,34.49-63.93,79.26-68.57a122.61,122.61,0,0,1,31.15.76c41.87,6.45,73.37,34.36,73.37,67.81"/><path d="M159.9,44.74s-22.43-.85,2,33.44,7.25,28.65,5.8,54.59-51.81-21.31-55.38-3.27c-12,60.66,39.4,78.82,55.16,84.43,10.33,3.68,16.83-9.32,22.12-45.68.77-5.27,14.85-8.82,13.85-20.59-.83-9.82-3.34-7.36-8-21.46-1.27-3.84,8-8.87,5.55-18.83-1.2-4.87-3.12-10-3.11-14.86C197.94,44.55,159.9,44.74,159.9,44.74Z"/><path class="cls-3" d="M124.72,166.26l5.05-37.87,34.61,12.43s-15.72-.68-15.36,22.37Z"/><path class="cls-2" d="M189.61,100.32c0,27.18-22.7,43.72-38.64,43.41-11.41-.23-38.64-16.23-38.64-43.41S129.63,51.1,151,51.1C150.2,51.1,189.61,73.14,189.61,100.32Z"/><path d="M151.33,43.94c-16.77,1.76-43.21,20-45.81,41.82-1.87,15.78-11.38,26.82-31.43,34.74-15.9,6.28-7,18.63-15.14,28.35C49.87,159.68,37.84,160,33.57,168.69c-11.51,23.28,11.09,38,11.09,38s11.27,10.61,47.28-6.23,19.63-83.8,35.57-84.73S141.68,100,141.68,100s-2.35-12.45,8.41-18.13c8.25-4.35,20.71-13.44,22.75-22.54C174.19,53.29,176.48,41.3,151.33,43.94Z"/><path class="cls-1" d="M44.8,218c0-35,34.49-63.93,79.26-68.57a122.61,122.61,0,0,1,31.15.76c41.87,6.45,73.37,34.36,73.37,67.81"/><path class="cls-2" d="M152.39,153c6.22,2.1,10.31,5.64,10.31,9.67,0,6.43-10.47,11.65-23.37,11.65S116,169.12,116,162.69c0-3.22,2.62-6.14,6.85-8.24"/><path class="cls-2" d="M156.8,143.15s-10.49,8.62-6.3,22.37"/><path class="cls-4" d="M129.14,133.65s-2.34,19.85-7.27,29.87"/></svg>